<svg xmlns="http://www.w3.org/2000/svg" xmlns:xlink="http://www.w3.org/1999/xlink" viewBox="0 0 700 345.6" width="700" height="345.6"><path d="M 99.400,49.500 C 100.615,51.972 99.900,52.000 100.400,54.500" stroke-width="5.592" stroke="black" fill="none" stroke-linecap="round"></path><path d="M 100.400,54.500 C 98.194,75.542 98.615,75.472 95.400,96.500" stroke-width="2.875" stroke="black" fill="none" stroke-linecap="round"></path><path d="M 95.400,96.500 C 94.543,105.660 94.194,105.542 92.400,114.500" stroke-width="2.697" stroke="black" fill="none" stroke-linecap="round"></path><path d="M 92.400,114.500 C 89.819,121.974 90.543,122.160 87.400,129.500" stroke-width="2.846" stroke="black" fill="none" stroke-linecap="round"></path><path d="M 87.400,129.500 C 85.550,136.051 85.319,135.974 83.400,142.500" stroke-width="3.036" stroke="black" fill="none" stroke-linecap="round"></path><path d="M 83.400,142.500 C 81.568,146.411 82.050,146.551 80.400,150.500" stroke-width="3.499" stroke="black" fill="none" stroke-linecap="round"></path><path d="M 80.400,150.500 C 79.652,156.500 79.568,153.411 79.400,156.500" stroke-width="4.548" stroke="black" fill="none" stroke-linecap="round"></path><path d="M 79.400,156.500 C 79.400,153.500 79.152,156.500 79.400,150.500" stroke-width="4.425" stroke="black" fill="none" stroke-linecap="round"></path><path d="M 79.400,150.500 C 79.218,142.497 79.400,142.500 79.400,134.500" stroke-width="3.232" stroke="black" fill="none" stroke-linecap="round"></path><path d="M 79.400,134.500 C 78.035,120.163 79.718,120.497 80.400,106.500" stroke-width="2.368" stroke="black" fill="none" stroke-linecap="round"></path><path d="M 80.400,106.500 C 83.714,94.216 82.535,94.163 88.400,82.500" stroke-width="2.233" stroke="black" fill="none" stroke-linecap="round"></path><path d="M 88.400,82.500 C 91.888,74.197 91.714,74.216 96.400,66.500" stroke-width="2.566" stroke="black" fill="none" stroke-linecap="round"></path><path d="M 96.400,66.500 C 101.095,60.123 100.388,59.697 105.400,53.500" stroke-width="2.745" stroke="black" fill="none" stroke-linecap="round"></path><path d="M 105.400,53.500 C 107.369,49.982 107.595,50.123 109.400,46.500" stroke-width="3.454" stroke="black" fill="none" stroke-linecap="round"></path><path d="M 109.400,46.500 C 110.321,43.320 110.869,43.982 112.400,41.500" stroke-width="3.896" stroke="black" fill="none" stroke-linecap="round"></path><path d="M 112.400,41.500 C 115.238,38.852 114.321,39.820 117.400,39.500" stroke-width="4.729" stroke="black" fill="none" stroke-linecap="round"></path><path d="M 117.400,39.500 C 120.945,41.408 120.238,40.352 122.400,44.500" stroke-width="4.678" stroke="black" fill="none" stroke-linecap="round"></path><path d="M 122.400,44.500 C 123.773,50.535 124.945,49.908 125.400,56.500" stroke-width="3.512" stroke="black" fill="none" stroke-linecap="round"></path><path d="M 125.400,56.500 C 127.634,61.392 126.773,61.535 128.400,66.500" stroke-width="3.493" stroke="black" fill="none" stroke-linecap="round"></path><path d="M 128.400,66.500 C 129.804,72.008 129.134,71.392 128.400,76.500" stroke-width="3.527" stroke="black" fill="none" stroke-linecap="round"></path><path d="M 128.400,76.500 C 125.941,79.535 127.304,80.008 123.400,82.500" stroke-width="3.700" stroke="black" fill="none" stroke-linecap="round"></path><path d="M 123.400,82.500 C 120.455,87.459 119.941,86.535 116.400,90.500" stroke-width="3.529" stroke="black" fill="none" stroke-linecap="round"></path><path d="M 116.400,90.500 C 113.929,91.289 114.455,91.959 111.400,91.500" stroke-width="4.052" stroke="black" fill="none" stroke-linecap="round"></path><path d="M 111.400,91.500 C 107.831,91.990 107.929,91.789 104.400,91.500" stroke-width="4.447" stroke="black" fill="none" stroke-linecap="round"></path><path d="M 104.400,91.500 C 97.400,88.006 100.831,90.990 97.400,89.500" stroke-width="4.559" stroke="black" fill="none" stroke-linecap="round"></path><path d="M 97.400,89.500 C 100.060,95.432 97.400,92.006 104.400,99.500" stroke-width="4.871" stroke="black" fill="none" stroke-linecap="round"></path><path d="M 104.400,99.500 C 108.657,102.721 108.060,102.932 113.400,104.500" stroke-width="3.945" stroke="black" fill="none" stroke-linecap="round"></path><path d="M 113.400,104.500 C 116.882,105.249 116.657,105.721 120.400,105.500" stroke-width="3.914" stroke="black" fill="none" stroke-linecap="round"></path><path d="M 120.400,105.500 C 123.960,106.050 123.882,105.749 127.400,105.500" stroke-width="3.913" stroke="black" fill="none" stroke-linecap="round"></path><path d="M 127.400,105.500 C 137.235,104.840 136.460,104.050 145.400,101.500" stroke-width="3.666" stroke="black" fill="none" stroke-linecap="round"></path><path d="M 145.400,101.500 C 150.659,97.939 148.235,100.340 149.400,96.500" stroke-width="4.340" stroke="black" fill="none" stroke-linecap="round"></path><path d="M 149.400,96.500 C 143.916,93.500 147.159,93.939 138.400,93.500" stroke-width="4.650" stroke="black" fill="none" stroke-linecap="round"></path><path d="M 138.400,93.500 C 132.156,94.341 132.416,93.500 126.400,96.500" stroke-width="3.643" stroke="black" fill="none" stroke-linecap="round"></path><path d="M 126.400,96.500 C 119.934,98.811 120.156,98.841 114.400,102.500" stroke-width="3.214" stroke="black" fill="none" stroke-linecap="round"></path><path d="M 114.400,102.500 C 109.174,105.918 109.434,105.811 105.400,110.500" stroke-width="3.269" stroke="black" fill="none" stroke-linecap="round"></path><path d="M 105.400,110.500 C 101.888,114.738 102.174,114.418 100.400,119.500" stroke-width="3.429" stroke="black" fill="none" stroke-linecap="round"></path><path d="M 100.400,119.500 C 99.278,123.359 99.388,122.738 100.400,126.500" stroke-width="3.754" stroke="black" fill="none" stroke-linecap="round"></path><path d="M 100.400,126.500 C 101.574,132.577 101.778,130.359 105.400,133.500" stroke-width="4.240" stroke="black" fill="none" stroke-linecap="round"></path><path d="M 105.400,133.500 C 117.592,135.187 116.074,136.077 129.400,133.500" stroke-width="2.619" stroke="black" fill="none" stroke-linecap="round"></path><path d="M 129.400,133.500 C 150.351,131.853 149.092,130.687 168.400,124.500" stroke-width="1.880" stroke="black" fill="none" stroke-linecap="round"></path><path d="M 168.400,124.500 C 177.357,119.053 177.351,120.853 183.400,111.500" stroke-width="2.329" stroke="black" fill="none" stroke-linecap="round"></path><path d="M 183.400,111.500 C 186.632,105.689 187.357,106.553 188.400,99.500" stroke-width="2.822" stroke="black" fill="none" stroke-linecap="round"></path><path d="M 188.400,99.500 C 189.400,94.978 189.632,95.189 189.400,90.500" stroke-width="3.367" stroke="black" fill="none" stroke-linecap="round"></path><path d="M 189.400,90.500 C 189.427,84.473 189.400,87.978 188.400,85.500" stroke-width="4.438" stroke="black" fill="none" stroke-linecap="round"></path><path d="M 188.400,85.500 C 184.133,91.668 185.427,88.473 181.400,98.500" stroke-width="4.089" stroke="black" fill="none" stroke-linecap="round"></path><path d="M 181.400,98.500 C 176.684,111.935 176.133,111.668 172.400,125.500" stroke-width="3.084" stroke="black" fill="none" stroke-linecap="round"></path><path d="M 172.400,125.500 C 169.400,131.149 170.684,130.935 169.400,136.500" stroke-width="3.222" stroke="black" fill="none" stroke-linecap="round"></path><path d="M 169.400,136.500 C 169.653,142.211 169.400,139.649 172.400,142.500" stroke-width="4.118" stroke="black" fill="none" stroke-linecap="round"></path><path d="M 172.400,142.500 C 181.096,142.048 179.153,143.211 188.400,138.500" stroke-width="3.144" stroke="black" fill="none" stroke-linecap="round"></path><path d="M 188.400,138.500 C 198.808,133.018 198.596,133.548 207.400,125.500" stroke-width="2.507" stroke="black" fill="none" stroke-linecap="round"></path><path d="M 207.400,125.500 C 214.744,118.580 214.808,119.018 220.400,110.500" stroke-width="2.622" stroke="black" fill="none" stroke-linecap="round"></path><path d="M 220.400,110.500 C 224.185,102.877 225.244,103.580 228.400,95.500" stroke-width="2.695" stroke="black" fill="none" stroke-linecap="round"></path><path d="M 228.400,95.500 C 233.455,89.371 232.185,88.877 236.400,82.500" stroke-width="2.878" stroke="black" fill="none" stroke-linecap="round"></path><path d="M 236.400,82.500 C 239.266,76.833 237.955,78.871 237.400,74.500" stroke-width="3.476" stroke="black" fill="none" stroke-linecap="round"></path><path d="M 237.400,74.500 C 232.701,71.425 235.266,71.833 228.400,72.500" stroke-width="4.388" stroke="black" fill="none" stroke-linecap="round"></path><path d="M 228.400,72.500 C 216.882,77.459 216.701,75.425 205.400,82.500" stroke-width="2.578" stroke="black" fill="none" stroke-linecap="round"></path><path d="M 205.400,82.500 C 196.522,86.802 196.382,86.459 187.400,90.500" stroke-width="2.597" stroke="black" fill="none" stroke-linecap="round"></path><path d="M 187.400,90.500 C 178.042,94.443 178.022,94.302 168.400,97.500" stroke-width="2.516" stroke="black" fill="none" stroke-linecap="round"></path><path d="M 168.400,97.500 C 157.362,100.368 157.542,100.943 146.400,103.500" stroke-width="2.435" stroke="black" fill="none" stroke-linecap="round"></path><path d="M 146.400,103.500 C 138.737,104.047 139.862,105.368 133.400,107.500" stroke-width="2.880" stroke="black" fill="none" stroke-linecap="round"></path><path d="M 133.400,107.500 C 128.403,111.083 130.237,109.547 129.400,114.500" stroke-width="3.861" stroke="black" fill="none" stroke-linecap="round"></path><path d="M 129.400,114.500 C 134.179,123.583 131.903,123.083 140.400,131.500" stroke-width="3.620" stroke="black" fill="none" stroke-linecap="round"></path><path d="M 140.400,131.500 C 145.432,137.570 145.179,137.583 151.400,142.500" stroke-width="3.046" stroke="black" fill="none" stroke-linecap="round"></path><path d="M 151.400,142.500 C 157.574,146.263 156.932,147.070 163.400,150.500" stroke-width="3.044" stroke="black" fill="none" stroke-linecap="round"></path><path d="M 163.400,150.500 C 167.914,155.365 168.574,154.263 173.400,158.500" stroke-width="3.157" stroke="black" fill="none" stroke-linecap="round"></path><path d="M 173.400,158.500 C 178.757,161.312 178.414,161.365 184.400,162.500" stroke-width="3.277" stroke="black" fill="none" stroke-linecap="round"></path><path d="M 184.400,162.500 C 188.786,163.705 188.257,163.312 192.400,162.500" stroke-width="4.232" stroke="black" fill="none" stroke-linecap="round"></path><path d="M 192.400,162.500 C 195.927,160.038 196.286,161.205 199.400,157.500" stroke-width="4.390" stroke="black" fill="none" stroke-linecap="round"></path><path d="M 199.400,157.500 C 207.484,147.344 208.927,150.538 218.400,143.500" stroke-width="4.177" stroke="black" fill="none" stroke-linecap="round"></path><path d="M 218.400,143.500 C 245.538,140.895 242.984,134.844 270.400,132.500" stroke-width="3.044" stroke="black" fill="none" stroke-linecap="round"></path><path d="M 270.400,132.500 C 292.639,119.341 284.038,127.895 295.400,117.500" stroke-width="3.366" stroke="black" fill="none" stroke-linecap="round"></path><path d="M 295.400,117.500 C 287.563,122.314 297.139,116.341 279.400,126.500" stroke-width="4.180" stroke="black" fill="none" stroke-linecap="round"></path><path d="M 279.400,126.500 C 268.291,133.013 268.063,132.314 256.400,137.500" stroke-width="2.535" stroke="black" fill="none" stroke-linecap="round"></path><path d="M 256.400,137.500 C 241.343,141.816 241.791,143.013 226.400,146.500" stroke-width="2.118" stroke="black" fill="none" stroke-linecap="round"></path><path d="M 226.400,146.500 C 208.027,152.944 207.843,152.316 189.400,158.500" stroke-width="1.816" stroke="black" fill="none" stroke-linecap="round"></path><path d="M 189.400,158.500 C 177.818,163.500 179.527,161.444 169.400,163.500" stroke-width="2.222" stroke="black" fill="none" stroke-linecap="round"></path><path d="M 169.400,163.500 C 167.934,160.949 167.318,163.500 168.400,158.500" stroke-width="3.671" stroke="black" fill="none" stroke-linecap="round"></path><path d="M 168.400,158.500 C 169.693,149.913 169.934,150.449 173.400,142.500" stroke-width="3.105" stroke="black" fill="none" stroke-linecap="round"></path><path d="M 173.400,142.500 C 178.295,134.013 177.693,133.913 184.400,126.500" stroke-width="2.753" stroke="black" fill="none" stroke-linecap="round"></path><path d="M 184.400,126.500 C 191.190,117.684 191.295,118.013 199.400,110.500" stroke-width="2.475" stroke="black" fill="none" stroke-linecap="round"></path><path d="M 199.400,110.500 C 207.310,103.414 207.190,103.684 216.400,98.500" stroke-width="2.513" stroke="black" fill="none" stroke-linecap="round"></path><path d="M 216.400,98.500 C 226.069,93.318 225.810,93.414 236.400,90.500" stroke-width="2.491" stroke="black" fill="none" stroke-linecap="round"></path><path d="M 236.400,90.500 C 248.352,86.500 248.069,87.318 260.400,86.500" stroke-width="2.364" stroke="black" fill="none" stroke-linecap="round"></path><path d="M 260.400,86.500 C 277.926,86.236 277.352,86.500 294.400,90.500" stroke-width="1.992" stroke="black" fill="none" stroke-linecap="round"></path><path d="M 294.400,90.500 C 320.765,97.744 320.426,97.236 345.400,108.500" stroke-width="1.437" stroke="black" fill="none" stroke-linecap="round"></path><path d="M 345.400,108.500 C 355.442,114.937 356.265,113.244 365.400,121.500" stroke-width="1.969" stroke="black" fill="none" stroke-linecap="round"></path><path d="M 365.400,121.500 C 377.652,129.153 377.442,129.437 389.400,137.500" stroke-width="2.050" stroke="black" fill="none" stroke-linecap="round"></path><path d="M 389.400,137.500 C 397.810,142.164 396.652,142.653 403.400,148.500" stroke-width="2.443" stroke="black" fill="none" stroke-linecap="round"></path><path d="M 403.400,148.500 C 404.911,151.692 405.310,150.664 404.400,154.500" stroke-width="3.427" stroke="black" fill="none" stroke-linecap="round"></path><path d="M 404.400,154.500 C 400.111,158.579 403.911,157.192 401.400,159.500" stroke-width="4.274" stroke="black" fill="none" stroke-linecap="round"></path><path d="M 401.400,159.500 C 406.662,160.833 403.611,161.079 411.400,159.500" stroke-width="4.696" stroke="black" fill="none" stroke-linecap="round"></path><path d="M 411.400,159.500 C 422.366,154.914 422.662,156.333 433.400,150.500" stroke-width="2.680" stroke="black" fill="none" stroke-linecap="round"></path><path d="M 433.400,150.500 C 446.223,148.023 444.866,145.914 456.400,141.500" stroke-width="2.334" stroke="black" fill="none" stroke-linecap="round"></path><path d="M 456.400,141.500 C 465.924,134.262 465.723,135.523 472.400,125.500" stroke-width="2.389" stroke="black" fill="none" stroke-linecap="round"></path><path d="M 472.400,125.500 C 473.400,122.000 474.424,122.762 473.400,118.500" stroke-width="3.313" stroke="black" fill="none" stroke-linecap="round"></path><path d="M 473.400,118.500 C 474.764,113.725 473.400,115.000 472.400,111.500" stroke-width="3.704" stroke="black" fill="none" stroke-linecap="round"></path><path d="M 472.400,111.500 C 465.147,104.464 466.264,105.725 456.400,102.500" stroke-width="2.872" stroke="black" fill="none" stroke-linecap="round"></path><path d="M 456.400,102.500 C 439.878,99.945 440.647,98.964 423.400,100.500" stroke-width="2.123" stroke="black" fill="none" stroke-linecap="round"></path><path d="M 423.400,100.500 C 395.308,102.204 395.378,101.445 367.400,105.500" stroke-width="1.476" stroke="black" fill="none" stroke-linecap="round"></path><path d="M 367.400,105.500 C 331.739,109.534 331.808,109.704 296.400,115.500" stroke-width="1.130" stroke="black" fill="none" stroke-linecap="round"></path><path d="M 296.400,115.500 C 254.674,122.471 254.739,122.534 213.400,131.500" stroke-width="1.125" stroke="black" fill="none" stroke-linecap="round"></path><path d="M 213.400,131.500 C 174.804,140.635 174.674,139.971 136.400,150.500" stroke-width="1.125" stroke="black" fill="none" stroke-linecap="round"></path><path d="M 136.400,150.500 C 120.311,154.727 120.304,154.635 104.400,159.500" stroke-width="1.459" stroke="black" fill="none" stroke-linecap="round"></path><path d="M 104.400,159.500 C 96.623,163.614 100.311,160.727 96.400,162.500" stroke-width="2.547" stroke="black" fill="none" stroke-linecap="round"></path><path d="M 96.400,162.500 C 99.433,158.009 96.123,161.114 103.400,154.500" stroke-width="3.722" stroke="black" fill="none" stroke-linecap="round"></path><path d="M 103.400,154.500 C 112.348,146.201 112.433,146.509 122.400,139.500" stroke-width="2.464" stroke="black" fill="none" stroke-linecap="round"></path><path d="M 122.400,139.500 C 138.522,125.967 139.348,128.201 157.400,118.500" stroke-width="1.774" stroke="black" fill="none" stroke-linecap="round"></path><path d="M 157.400,118.500 C 206.552,101.244 205.522,99.467 256.400,86.500" stroke-width="1.125" stroke="black" fill="none" stroke-linecap="round"></path><path d="M 256.400,86.500 C 277.742,80.684 277.552,80.244 299.400,76.500" stroke-width="1.351" stroke="black" fill="none" stroke-linecap="round"></path><path d="M 299.400,76.500 C 321.865,72.758 321.742,72.184 344.400,69.500" stroke-width="1.471" stroke="black" fill="none" stroke-linecap="round"></path><path d="M 344.400,69.500 C 363.408,67.057 363.365,66.758 382.400,64.500" stroke-width="1.642" stroke="black" fill="none" stroke-linecap="round"></path></svg>